<?xml version="1.0" encoding="UTF-8"?>
<svg width="656.25" height="445.89" viewBox="0 0 656.25 445.89" xmlns="http://www.w3.org/2000/svg">
 <g transform="matrix(1.3333 0 0 -1.3333 -69.035 844.61)">
  <g transform="translate(297.87 299.8)">
   <path d="m0 0-245.59 106.35v59.745l245.6-106.34zm0.0029 0 245.59 106.35v59.745l-245.6-106.34z" fill="#201928"/>
  </g>
  <g transform="matrix(.99799 0 0 1 297.37 299.8)">
   <path d="m0 0-245.59 106.35v59.745l245.6-106.34zm0.96336 3e-5 245.63 106.35v59.745l-245.63-106.34z" fill="none" stroke="#231f20" stroke-miterlimit="10"/>
  </g>
  <g transform="translate(297.84 382.85)">
   <path d="m0 0-184.2 79.587v59.746l184.2-79.585zm0.0039 0 184.2 79.587v59.746l-184.2-79.585z" fill="#271f37"/>
  </g>
  <g transform="matrix(.99724 0 0 1 297.35 382.85)">
   <path d="m0 0-184.2 79.587v59.746l184.2-79.585zm0.97712 3e-5 184.21 79.587v59.746l-184.21-79.585z" fill="none" stroke="#231f20" stroke-miterlimit="10"/>
  </g>
  <g transform="translate(297.84 465.63)">
   <path d="m0 0-122.8 53.359v59.746l122.8-53.358zm-0.4024 0 122.8 53.358v59.746l-122.8-53.358z" fill="#4f4666"/>
  </g>
  <g transform="matrix(.98957 0 -.011417 .99786 297.25 632.56)">
   <path d="m0 0-122.7-53.39 122.8-53.359 123.4 53.359z" fill="#63577d"/>
  </g>
  <g transform="matrix(.98984 2.0117e-5 -.0036883 1.0007 297.05 632.91)">
   <path d="m0 0-122.7-53.39 122.8-53.359 123.4 53.359zm-0.29053-167.13-123.39 53.302 0.22238 59.68 123.39-53.301zm0.96446-1e-3 123.36 53.303 0.2224 59.687-123.36-53.303z" fill="none" stroke="#231f20" stroke-miterlimit="10"/>
  </g>
 </g>
</svg>
